<?xml version="1.0" ?><svg viewBox="0 0 64 64" xmlns="http://www.w3.org/2000/svg"><defs><style>.cls-1{fill:#ef1925;}.cls-2{fill:#e7eced;}.cls-3{fill:#ffd311;}.cls-4{fill:#7e8488;}.cls-5{fill:#3f56f5;}.cls-6{fill:#36c63f;}.cls-7{fill:none;stroke:#272835;stroke-linejoin:round;stroke-width:2px;}.cls-8{fill:#d31b20;}</style></defs><title/><g data-name="19-Google Map" id="_19-Google_Map"><g data-name="&lt;Group&gt;" id="_Group_"><path class="cls-1" d="M49.18,17.64A14,14,0,0,1,55,29c0,11-14,23-14,23s-7.7-6.6-11.68-14.5a22.18,22.18,0,0,1-2-5.5A14,14,0,0,1,41,15a13.88,13.88,0,0,1,8.18,2.64Z"/><path class="cls-2" d="M40.68,61.74v0a30.72,30.72,0,0,1-6.6,1.17L19,47.83l3.89-3.89Z"/><path class="cls-3" d="M55.44,11.71l-.53.2-5.73,5.73A14.06,14.06,0,0,0,44,15.32l7.16-7.16.26-.32A31.29,31.29,0,0,1,55.44,11.71Z"/><path class="cls-3" d="M29.32,37.5l-6.44,6.44L19,47.83l-7.46,7.45a30.1,30.1,0,0,1-3.66-3.83L27.32,32h0A22.18,22.18,0,0,0,29.32,37.5Z"/><path class="cls-4" d="M55.44,11.71A31,31,0,0,1,40.69,61.76v0l-17.8-17.8,6.44-6.44C33.3,45.4,41,52,41,52S55,40,55,29a14,14,0,0,0-5.82-11.36l5.73-5.73Z"/><path class="cls-5" d="M19,47.83l15.1,15.1C33.4,63,32.7,63,32,63a30.85,30.85,0,0,1-20.47-7.72Z"/><path class="cls-6" d="M51.42,7.84l-.26.32L44,15.32A14,14,0,0,0,27,29a14,14,0,0,0,.33,3h0L7.87,51.45A31,31,0,0,1,51.42,7.84Z"/><path class="cls-7" d="M55.44,11.71A31,31,0,0,1,40.69,61.76a30.72,30.72,0,0,1-6.6,1.17C33.4,63,32.7,63,32,63a30.85,30.85,0,0,1-20.47-7.72,30.1,30.1,0,0,1-3.66-3.83A31,31,0,0,1,51.42,7.84,31.29,31.29,0,0,1,55.44,11.71Z"/><path class="cls-7" d="M29.32,37.5C33.3,45.4,41,52,41,52S55,40,55,29A14,14,0,0,0,44,15.32,14,14,0,0,0,27,29a14,14,0,0,0,.33,3A22.18,22.18,0,0,0,29.32,37.5Z"/><polyline class="cls-7" points="27.32 32 7.87 51.45 7.85 51.47"/><line class="cls-7" x1="51.16" x2="44" y1="8.16" y2="15.32"/><polyline class="cls-7" points="49.03 17.79 49.18 17.64 54.91 11.91"/><polyline class="cls-7" points="11.53 55.28 18.99 47.83 22.88 43.94 29.32 37.5"/><polyline class="cls-7" points="18.99 47.83 34.09 62.93 34.16 63"/><line class="cls-7" x1="22.88" x2="40.68" y1="43.94" y2="61.74"/></g><line class="cls-7" x1="31" x2="33" y1="10" y2="10"/><line class="cls-7" x1="35" x2="37" y1="10" y2="10"/><line class="cls-7" x1="27" x2="29" y1="10" y2="10"/><g data-name="&lt;Group&gt;" id="_Group_2"><circle class="cls-8" cx="41" cy="28" r="6"/><circle class="cls-7" cx="41" cy="28" r="6"/></g><path class="cls-7" d="M14,23h7v4a1,1,0,0,1-1,1H12a1,1,0,0,1-1-1V18a1,1,0,0,1,1-1h9"/></g></svg>